<svg id="Layer_1" data-name="Layer 1" xmlns="http://www.w3.org/2000/svg" xmlns:xlink="http://www.w3.org/1999/xlink" width="564.6" height="524.26" viewBox="0 0 564.6 524.26"><defs><style>.cls-1{fill:#ecb42c;}.cls-2{fill:url(#linear-gradient);}.cls-3{fill:url(#linear-gradient-2);}.cls-4{fill:#520b4d;}</style><linearGradient id="linear-gradient" x1="848.97" y1="418.81" x2="447.23" y2="168.07" gradientTransform="matrix(1, 0, 0, -1, -371.5, 397.26)" gradientUnits="userSpaceOnUse"><stop offset="0" stop-color="#ffd155"/><stop offset="1" stop-color="#ff15df"/></linearGradient><linearGradient id="linear-gradient-2" x1="690.9" y1="77.89" x2="803.32" y2="-34.54" gradientTransform="matrix(1, 0, 0, -1, -371.5, 397.26)" gradientUnits="userSpaceOnUse"><stop offset="0" stop-color="#ffd155"/><stop offset="1" stop-color="#ff712a"/></linearGradient></defs><path class="cls-1" d="M262.16,0C117.37,0,0,117.35,0,262.13S117.37,524.26,262.16,524.26,524.28,406.9,524.28,262.13h-151a111.36,111.36,0,0,1-111,111.35h-.35a111.35,111.35,0,0,1,.17-222.69v.07H414A150.57,150.57,0,0,0,564.6.36V.26Z" transform="translate(0 0)"/><path class="cls-2" d="M564.58.26A150.52,150.52,0,0,1,414.12,150.84H265.65S43.11,130.1,0,262.13C0,117.35,117.39,0,262.17,0Z" transform="translate(0 0)"/><path class="cls-3" d="M373.34,262.13s38.3,218.42-111.17,262.13c144.74,0,262.09-117.35,262.09-262.13Z" transform="translate(0 0)"/><path class="cls-4" d="M524.26,262.13c0,144.78-117.35,262.13-262.09,262.13,149.47-43.71,111.17-262.13,111.17-262.13Z" transform="translate(0 0)"/><path class="cls-4" d="M564.58.26A150.52,150.52,0,0,1,414.12,150.84H265.65S43.11,130.1,0,262.13C0,117.35,117.39,0,262.17,0Z" transform="translate(0 0)"/></svg>